HIERARCHY
ROOT Hips
{
	OFFSET 0.00 0.00 0.00
	CHANNELS 6 Xposition Yposition Zposition Xrotation Yrotation Zrotation
	JOINT Spine
	{
		OFFSET 0.00000 9.62115 0.00000
		CHANNELS 3 Xrotation Yrotation Zrotation
		JOINT Head
		{
			OFFSET 0.00000 12.77195 0.00000
			CHANNELS 3 Xrotation Yrotation Zrotation
			End Site
			{
				OFFSET 0.00000 4.52755 0.00000
			}
		}
		JOINT LeftShoulder
		{
			OFFSET 0.00000 7.40057 0.00000
			CHANNELS 3 Xrotation Yrotation Zrotation
			JOINT LeftArm
			{
				OFFSET 8.34930 0.00000 0.00000
				CHANNELS 3 Xrotation Yrotation Zrotation
				JOINT LeftForeArm
				{
					OFFSET 11.33484 0.00000 0.00000
					CHANNELS 3 Yrotation Zrotation Xrotation
					JOINT LeftHand
					{
						OFFSET 9.69418 0.00000 0.00000
						CHANNELS 3 Xrotation Yrotation Zrotation
						JOINT LeftHandThumb1
						{
							OFFSET 0.00000 0.00000 0.00000
							CHANNELS 3 Xrotation Zrotation Yrotation
							End Site
							{
								OFFSET 0.00000 0.00000 3.93700
							}
						}
						End Site
						{
							OFFSET 3.93700 0.00000 0.00000
						}
					}
				}
			}
		}
		JOINT RightShoulder
		{
			OFFSET 0.00000 7.40057 0.00000
			CHANNELS 3 Xrotation Yrotation Zrotation
			JOINT RightArm
			{
				OFFSET -8.34930 0.00000 0.00000
				CHANNELS 3 Xrotation Yrotation Zrotation
				JOINT RightForeArm
				{
					OFFSET -11.33484 0.00000 0.00000
					CHANNELS 3 Yrotation Zrotation Xrotation
					JOINT RightHand
					{
						OFFSET -9.69418 0.00000 0.00000
						CHANNELS 3 Xrotation Yrotation Zrotation
						JOINT RightHandThumb1
						{
							OFFSET 0.00000 0.00000 0.00000
							CHANNELS 3 Xrotation Zrotation Yrotation
							End Site
							{
								OFFSET 0.00000 0.00000 3.93700
							}
						}
						End Site
						{
							OFFSET -3.93700 0.00000 0.00000
						}
					}
				}
			}
		}
	}
	JOINT LeftUpLeg
	{
		OFFSET 2.70060 0.00000 0.00000
		CHANNELS 3 Xrotation Yrotation Zrotation
		JOINT LeftLeg
		{
			OFFSET 0.00000 -16.75718 0.00000
			CHANNELS 3 Xrotation Yrotation Zrotation
			JOINT LeftFoot
			{
				OFFSET 0.00000 -16.75915 0.00000
				CHANNELS 3 Xrotation Yrotation Zrotation
				JOINT LeftToeBase
				{
					OFFSET 0.00000 -1.51183 5.64225
					CHANNELS 3 Xrotation Yrotation Zrotation
					End Site
					{
						OFFSET 0.00000 0.00000 2.95275
					}
				}
			}
		}
	}
	JOINT RightUpLeg
	{
		OFFSET -2.70060 0.00000 0.00000
		CHANNELS 3 Xrotation Yrotation Zrotation
		JOINT RightLeg
		{
			OFFSET 0.00000 -16.75718 0.00000
			CHANNELS 3 Xrotation Yrotation Zrotation
			JOINT RightFoot
			{
				OFFSET 0.00000 -16.75915 0.00000
				CHANNELS 3 Xrotation Yrotation Zrotation
				JOINT RightToeBase
				{
					OFFSET 0.00000 -1.51183 5.64225
					CHANNELS 3 Xrotation Yrotation Zrotation
					End Site
					{
						OFFSET 0.00000 0.00000 2.95275
					}
				}
			}
		}
	}
}
MOTION
Frames:	11
Frame Time: 0.008333
-12.4480 34.8994 -14.2252 -171.0519 -2.5243 -178.2796 20.6645 -4.6982 -0.8390 17.8011 -18.9239 -9.7035 -2.9793 25.8285 28.2934 -36.3469 -15.1825 -34.5888 -3.0355 0.0000 6.6411 0.8776 10.9455 -4.6121 32.8623 0.0000 24.3270 0.8316 -11.1353 -27.1590 -39.7247 1.5692 35.9619 1.3409 -0.0000 16.0147 0.1163 -2.7500 2.4233 33.1476 -0.0000 -26.2537 10.1899 14.7732 4.8306 5.1680 -0.0000 -0.0000 -10.8535 13.0331 -4.8398 4.6461 -0.0000 -0.0000 10.6646 -14.8903 -6.0855 5.3861 -0.0000 -0.0000 -17.6662 -15.5767 1.3079 13.5091 -0.0000 -0.0000
-12.4456 34.8984 -14.2321 -171.0556 -2.5037 -178.3054 20.6518 -4.6972 -0.8572 17.7882 -18.9402 -9.6944 -2.9586 25.8616 28.2978 -36.4109 -15.1728 -34.5978 -3.0617 -0.0000 6.6562 0.8815 10.9954 -4.6120 32.8623 0.0000 24.3270 0.7329 -11.0502 -27.1831 -39.5864 1.5521 35.9724 1.3575 -0.0000 16.1069 0.1160 -2.7649 2.4031 33.1476 -0.0000 -26.2537 10.1983 14.7557 4.8505 5.1645 -0.0000 -0.0000 -10.8576 13.0556 -4.7866 4.5723 -0.0000 -0.0000 10.6755 -14.8839 -6.0586 5.3861 -0.0000 -0.0000 -17.6720 -15.5694 1.3062 13.5147 -0.0000 -0.0000
-12.4446 34.8973 -14.2417 -171.0445 -2.4601 -178.3356 20.6484 -4.6699 -0.8527 17.7827 -18.9475 -9.7163 -2.9644 25.8506 28.2955 -36.3991 -15.1476 -34.5927 -3.1014 0.0000 6.6329 0.8841 11.0001 -4.6237 32.8623 0.0000 24.3270 0.7489 -11.0429 -27.1890 -39.5710 1.6016 35.9656 1.3361 -0.0000 16.0860 0.1170 -2.7286 2.4573 33.1476 -0.0000 -26.2537 10.2417 14.7582 4.8695 5.1427 -0.0000 -0.0000 -10.8924 13.1369 -4.7873 4.6365 -0.0000 -0.0000 10.7081 -14.8661 -6.0298 5.3767 -0.0000 -0.0000 -17.6737 -15.5678 1.3185 13.5475 -0.0000 -0.0000
-12.4400 34.8976 -14.2481 -171.0566 -2.4446 -178.3589 20.6188 -4.6805 -0.8732 17.7990 -18.9401 -9.6797 -2.9800 25.8535 28.3014 -36.4097 -15.1216 -34.5789 -3.1427 0.0000 6.6312 0.8744 10.9275 -4.6029 32.8623 0.0000 24.3270 0.7543 -11.0122 -27.1684 -39.5778 1.5967 35.9596 1.3299 0.0000 16.1138 0.1062 -2.5601 2.3773 33.1476 -0.0000 -26.2537 10.2450 14.7397 4.8942 5.1308 -0.0000 -0.0000 -10.8976 13.1747 -4.7905 4.6775 -0.0000 -0.0000 10.7090 -14.8705 -6.0045 5.3763 -0.0000 -0.0000 -17.6645 -15.5477 1.3416 13.5543 -0.0000 -0.0000
-12.4342 34.8968 -14.2585 -171.0522 -2.4079 -178.3864 20.5947 -4.6635 -0.8997 17.8221 -18.9360 -9.6503 -2.9634 25.8505 28.2966 -36.4640 -15.0732 -34.5454 -3.1774 0.0000 6.7779 0.8968 10.8890 -4.7371 32.8623 0.0000 24.3270 0.7265 -10.9775 -27.1792 -39.5117 1.6184 35.9889 1.3109 -0.0000 16.0333 0.0949 -2.4974 2.1779 33.1476 -0.0000 -26.2537 10.2743 14.7734 4.9219 5.1089 -0.0000 -0.0000 -10.8891 13.1526 -4.7581 4.5888 -0.0000 -0.0000 10.7437 -14.8384 -5.9710 5.3607 -0.0000 -0.0000 -17.6615 -15.5502 1.3513 13.6091 -0.0000 -0.0000
-12.4276 34.8958 -14.2677 -171.0460 -2.4039 -178.4022 20.5753 -4.6666 -0.9459 17.8477 -18.9370 -9.5954 -3.0078 25.8143 28.3553 -36.4229 -15.0759 -34.5377 -3.1691 0.0000 6.7524 0.8868 10.8230 -4.7123 32.8623 0.0000 24.3270 0.7115 -10.9521 -27.1709 -39.5101 1.5599 36.0167 1.3415 0.0000 16.0376 0.0923 -2.5196 2.0993 33.1476 -0.0000 -26.2537 10.2971 14.7624 4.9485 5.0999 -0.0000 -0.0000 -10.9117 13.2020 -4.8066 4.6589 -0.0000 -0.0000 10.7758 -14.8485 -5.9414 5.3453 -0.0000 -0.0000 -17.6633 -15.5374 1.3327 13.7160 -0.0000 -0.0000
-12.4235 34.8949 -14.2748 -171.0460 -2.3672 -178.4264 20.5600 -4.6411 -0.9603 17.8359 -18.9061 -9.6032 -2.9578 25.8753 28.3391 -36.4816 -15.2108 -34.5698 -3.0792 0.0000 6.5682 0.8629 10.9359 -4.5393 32.8623 0.0000 24.3270 0.7130 -10.9444 -27.1717 -39.5503 1.5437 36.0248 1.3314 -0.0000 16.0198 0.0993 -2.5766 2.2088 33.1476 -0.0000 -26.2537 10.3162 14.7771 4.9710 5.0873 -0.0000 -0.0000 -10.9162 13.2272 -4.8091 4.6183 -0.0000 -0.0000 10.7810 -14.8290 -5.9177 5.3584 -0.0000 -0.0000 -17.6645 -15.5180 1.3133 13.8119 -0.0000 -0.0000
-12.4207 34.8937 -14.2822 -171.0453 -2.3231 -178.4560 20.5452 -4.5957 -0.9686 17.8314 -18.8949 -9.6134 -2.9545 25.8672 28.3492 -36.4761 -15.2454 -34.5766 -3.0471 0.0000 6.5576 0.8624 10.8371 -4.5773 32.8623 0.0000 24.3270 0.5982 -10.8800 -27.2354 -39.4509 1.4652 36.0700 1.3875 0.0000 16.0338 0.1116 -2.7589 2.3174 33.1476 -0.0000 -26.2537 10.3380 14.8169 4.9939 5.0711 -0.0000 -0.0000 -10.9510 13.2386 -4.7786 4.6792 -0.0000 -0.0000 10.7851 -14.7993 -5.8951 5.3751 -0.0000 -0.0000 -17.6677 -15.5009 1.3450 13.9783 -0.0000 -0.0000
-12.4174 34.8929 -14.2878 -171.0564 -2.3013 -178.4911 20.5171 -4.5904 -0.9523 17.8002 -18.8367 -9.6463 -2.9762 25.8413 28.3503 -36.4297 -15.2175 -34.5494 -3.0805 -0.0000 6.7041 0.8833 10.7558 -4.7226 32.8623 0.0000 24.3270 0.6468 -10.9022 -27.2216 -39.6824 1.4197 36.0779 1.3274 -0.0000 16.2508 0.1117 -2.7588 2.3191 33.1476 -0.0000 -26.2537 10.3266 14.8236 5.0321 5.0820 -0.0000 -0.0000 -10.9655 13.2556 -4.7933 4.6514 -0.0000 -0.0000 10.7758 -14.7803 -5.8594 5.3978 -0.0000 -0.0000 -17.6640 -15.4932 1.3226 14.1140 -0.0000 -0.0000
-12.4148 34.8920 -14.2926 -171.0578 -2.2967 -178.5087 20.5093 -4.5849 -0.9669 17.7686 -18.8123 -9.6367 -2.8862 25.9167 28.3078 -36.5343 -15.3450 -34.5614 -3.0130 0.0000 6.5745 0.8700 10.8083 -4.6295 32.8623 0.0000 24.3270 0.6485 -10.9026 -27.2045 -39.7174 1.4159 36.0712 1.3057 0.0000 16.3108 0.1099 -2.7292 2.3063 33.1476 -0.0000 -26.2537 10.3253 14.8138 5.0538 5.0932 -0.0000 -0.0000 -10.9954 13.2712 -4.7800 4.6931 -0.0000 -0.0000 10.7668 -14.7786 -5.8407 5.4281 -0.0000 -0.0000 -17.6698 -15.4849 1.2992 14.3287 -0.0000 -0.0000
-12.4125 34.8914 -14.2967 -171.0647 -2.2906 -178.5225 20.4935 -4.5964 -0.9829 17.7168 -18.7767 -9.6395 -2.8860 25.9089 28.3197 -36.5294 -15.3243 -34.5504 -3.0519 -0.0000 6.5926 0.8827 10.8363 -4.6851 32.8623 0.0000 24.3270 0.6583 -10.8852 -27.1820 -39.6917 1.4564 36.0599 1.3058 0.0000 16.2883 0.1097 -2.7513 2.2832 33.1476 -0.0000 -26.2537 10.3113 14.8025 5.0717 5.1185 -0.0000 -0.0000 -11.0125 13.2952 -4.7599 4.7001 -0.0000 -0.0000 10.7449 -14.7739 -5.8289 5.4647 -0.0000 -0.0000 -17.6614 -15.4663 1.2747 14.5545 -0.0000 -0.0000
